# xmcd
#
# Track frame offsets: 
#        150
#        22440
#        36540
#        53297
#        69492
#        88082
#        113145
#        133600
#        152492
#        171005
#
# Disc length: 2513 seconds
#
# Revision: 4
# Processed by: cddbd v1.5.2PL0 Copyright (c) Steve Scherf et al.
# Submitted via: ExactAudioCopy v1.0b1
#
DISCID=8209cf0a
DTITLE=黃耀明 - 光天化日
DYEAR=2000
DGENRE=Pop
TTITLE0=下一站天國
TTITLE1=填充
TTITLE2=我這麼容易愛人
TTITLE3=迷戀荷爾蒙
TTITLE4=黃耀明 and 彭羚 - 漩渦 [GTR Mix]
TTITLE5=愛的教育
TTITLE6=罅隙
TTITLE7=心頭好
TTITLE8=光天化日
TTITLE9=深藍色
EXTD=YEAR: 2000
EXTT0=
EXTT1=
EXTT2=
EXTT3=
EXTT4=
EXTT5=
EXTT6=
EXTT7=
EXTT8=
EXTT9=
PLAYORDER=
